<svg xmlns="http://www.w3.org/2000/svg" width="64.057" height="64.057" viewBox="0 0 64.057 64.057">
  <g id="Group_2461" data-name="Group 2461" transform="translate(-9.75 -9.75)">
    <path id="Path_5206" data-name="Path 5206" d="M67.831,61.875a8.143,8.143,0,1,0,8.143,8.143A8.152,8.152,0,0,0,67.831,61.875Zm0,14.7a6.554,6.554,0,1,1,6.554-6.554A6.562,6.562,0,0,1,67.831,76.572Z" transform="translate(-10.213 -10.662)" fill="#909090"/>
    <path id="Path_5206_-_Outline" data-name="Path 5206 - Outline" d="M67.831,61.625a8.393,8.393,0,1,1-8.393,8.393A8.4,8.4,0,0,1,67.831,61.625Zm0,16.286a7.893,7.893,0,1,0-7.893-7.893A7.9,7.9,0,0,0,67.831,77.911Zm0-14.7a6.8,6.8,0,1,1-6.8,6.8A6.812,6.812,0,0,1,67.831,63.214Zm0,13.109a6.3,6.3,0,1,0-6.3-6.3A6.311,6.311,0,0,0,67.831,76.322Z" transform="translate(-10.213 -10.662)" fill="#909090"/>
    <path id="Path_5207" data-name="Path 5207" d="M38.5,52.5a.794.794,0,0,0,.794-.794V16.62a.794.794,0,0,0-.794-.794H36.226l-2.3-2.653A9.356,9.356,0,0,0,26.823,10H22.468a9.358,9.358,0,0,0-7.1,3.171l-2.3,2.654H10.794A.794.794,0,0,0,10,16.62V51.709a.794.794,0,0,0,.794.794h1.928V67.362a2.627,2.627,0,0,0-2.348,2.6v2.8a.794.794,0,0,0,.794.794h4.7a.794.794,0,0,0,.794-.794v-2.8a2.628,2.628,0,0,0-2.348-2.6V55.031l3.552,7.363a.8.8,0,0,0,.716.45h1.437v3.975a.8.8,0,0,0,.794.794h7.5a.8.8,0,0,0,.794-.794V62.843h1.437a.8.8,0,0,0,.715-.45l3.727-7.724V67.362a2.628,2.628,0,0,0-2.348,2.6v2.8a.794.794,0,0,0,.794.794h4.7a.794.794,0,0,0,.794-.794v-2.8a2.627,2.627,0,0,0-2.348-2.6V52.5ZM16.568,14.212a7.77,7.77,0,0,1,5.9-2.623h4.355a7.766,7.766,0,0,1,5.9,2.624l1.4,1.613H15.17Zm-4.979,3.2H37.7v33.5H11.589ZM15.07,69.966v2H11.964v-2a1.044,1.044,0,0,1,1.044-1.043h1.018A1.045,1.045,0,0,1,15.07,69.966Zm12.443-3.942H21.605v-3.18h5.908Zm2.527-4.769H19.078L14.857,52.5H34.262Zm7.288,8.711v2H34.222v-2a1.045,1.045,0,0,1,1.044-1.043h1.018A1.044,1.044,0,0,1,37.329,69.966Z" fill="#909090"/>
    <path id="Path_5207_-_Outline" data-name="Path 5207 - Outline" d="M38.123,73.807h-4.7a1.046,1.046,0,0,1-1.044-1.044v-2.8a2.871,2.871,0,0,1,2.348-2.819V55.763L31.479,62.5a1.05,1.05,0,0,1-.94.591H29.352v3.725a1.046,1.046,0,0,1-1.044,1.044h-7.5a1.046,1.046,0,0,1-1.044-1.044V63.093H18.579a1.051,1.051,0,0,1-.941-.591l-3.077-6.378V67.147a2.871,2.871,0,0,1,2.348,2.819v2.8a1.046,1.046,0,0,1-1.044,1.044h-4.7a1.046,1.046,0,0,1-1.044-1.044v-2.8a2.871,2.871,0,0,1,2.348-2.819V52.754H10.794A1.046,1.046,0,0,1,9.75,51.709V16.62a1.046,1.046,0,0,1,1.044-1.044h2.158l2.225-2.568A9.608,9.608,0,0,1,22.468,9.75h4.355a9.607,9.607,0,0,1,7.291,3.259l2.225,2.567H38.5a1.046,1.046,0,0,1,1.044,1.044V51.709A1.046,1.046,0,0,1,38.5,52.754H36.82V67.147a2.871,2.871,0,0,1,2.348,2.819v2.8A1.046,1.046,0,0,1,38.123,73.807ZM34.756,54.561l.475.109V67.586l-.223.024a2.373,2.373,0,0,0-2.125,2.355v2.8a.545.545,0,0,0,.544.544h4.7a.545.545,0,0,0,.544-.544v-2.8a2.373,2.373,0,0,0-2.125-2.355l-.223-.024V52.254H38.5a.545.545,0,0,0,.544-.544V16.62a.545.545,0,0,0-.544-.544H36.112l-2.375-2.74a9.107,9.107,0,0,0-6.914-3.086H22.468a9.108,9.108,0,0,0-6.913,3.085l-2.375,2.741H10.794a.545.545,0,0,0-.544.544V51.709a.545.545,0,0,0,.544.544h2.178V67.586l-.223.024a2.373,2.373,0,0,0-2.125,2.355v2.8a.545.545,0,0,0,.544.544h4.7a.545.545,0,0,0,.544-.544v-2.8a2.373,2.373,0,0,0-2.125-2.355l-.223-.024V55.031l.475-.109,3.552,7.363a.548.548,0,0,0,.491.308h1.687v4.225a.545.545,0,0,0,.544.544h7.5a.545.545,0,0,0,.544-.544V62.593h1.687a.547.547,0,0,0,.49-.308Zm2.823,17.656H33.972V69.966a1.3,1.3,0,0,1,1.294-1.293h1.018a1.3,1.3,0,0,1,1.294,1.293Zm-3.106-.5h2.606V69.966a.794.794,0,0,0-.794-.793H35.266a.794.794,0,0,0-.794.793Zm-19.152.5H11.714V69.966a1.3,1.3,0,0,1,1.294-1.293h1.018a1.3,1.3,0,0,1,1.294,1.293Zm-3.106-.5H14.82V69.966a.794.794,0,0,0-.794-.793H13.008a.794.794,0,0,0-.794.793Zm15.549-5.444H21.355v-3.68h6.408Zm-5.908-.5h5.408v-2.68H21.855ZM30.2,61.5H18.921l-4.463-9.251h20.2ZM19.235,61H29.883l3.981-8.251H15.255Zm18.718-9.84H11.339v-34H37.954Zm-26.115-.5H37.454v-33H11.839ZM34.67,16.076H14.622l1.757-2.027a8.018,8.018,0,0,1,6.089-2.71h4.355a8.015,8.015,0,0,1,6.09,2.711Zm-18.953-.5H33.575l-1.039-1.2a7.516,7.516,0,0,0-5.712-2.538H22.468a7.519,7.519,0,0,0-5.711,2.537Z" fill="#909090"/>
    <path id="Path_5208" data-name="Path 5208" d="M32.839,44.375H20.4a.794.794,0,0,0-.794.794v7.349a.794.794,0,0,0,.794.794H32.839a.794.794,0,0,0,.794-.794V45.169A.794.794,0,0,0,32.839,44.375Zm-.794,7.349H21.2v-5.76H32.044Z" transform="translate(-1.975 -7.066)" fill="#909090"/>
    <path id="Path_5208_-_Outline" data-name="Path 5208 - Outline" d="M20.4,44.125H32.839a1.046,1.046,0,0,1,1.044,1.044v7.349a1.046,1.046,0,0,1-1.044,1.044H20.4a1.046,1.046,0,0,1-1.044-1.044V45.169A1.046,1.046,0,0,1,20.4,44.125Zm12.434,8.938a.545.545,0,0,0,.544-.544V45.169a.545.545,0,0,0-.544-.544H20.4a.545.545,0,0,0-.544.544v7.349a.545.545,0,0,0,.544.544Zm-11.89-7.349H32.294v6.26H20.949Zm10.845.5H21.449v5.26H31.794Z" transform="translate(-1.975 -7.066)" fill="#909090"/>
    <path id="Path_5209" data-name="Path 5209" d="M80.958,15.4H69.489V10.794A.794.794,0,0,0,68.694,10h-5.76a.794.794,0,0,0-.794.794V15.4H56.912a6.134,6.134,0,0,0-6.127,6.127v20.1h0a15.878,15.878,0,0,0-.91,5.308V72.762a.794.794,0,0,0,.794.794H80.958a.794.794,0,0,0,.794-.794V46.938A15.953,15.953,0,0,0,69.489,31.428v-9.4h11.47a.8.8,0,0,0,.794-.794V16.2A.794.794,0,0,0,80.958,15.4ZM52.374,21.528a4.543,4.543,0,0,1,4.538-4.538H62.14v3.453H58.673A2.578,2.578,0,0,0,56.1,23.018V34.3a16.02,16.02,0,0,0-3.724,4.09Zm9.765.5v9.4a15.8,15.8,0,0,0-4.453,1.812V23.018a.987.987,0,0,1,.986-.986ZM80.164,71.968h-28.7V46.938c0-.265.021-.527.035-.79h28.63c.014.263.035.524.035.79Zm-.2-27.409H51.668A14.355,14.355,0,0,1,63.084,32.851a.8.8,0,0,0,.645-.781V11.589H67.9V32.07a.8.8,0,0,0,.644.781A14.355,14.355,0,0,1,79.96,44.559Zm.2-24.116H69.489V16.99H80.164Z" transform="translate(-8.196)" fill="#909090"/>
    <path id="Path_5209_-_Outline" data-name="Path 5209 - Outline" d="M62.934,9.75h5.76a1.046,1.046,0,0,1,1.044,1.044v4.357h11.22A1.046,1.046,0,0,1,82,16.2v5.042a1.046,1.046,0,0,1-1.044,1.044H69.739v8.949A16.193,16.193,0,0,1,82,46.938V72.762a1.046,1.046,0,0,1-1.044,1.044H50.669a1.046,1.046,0,0,1-1.044-1.044V46.938a16.108,16.108,0,0,1,.91-5.351V21.528a6.384,6.384,0,0,1,6.377-6.377H61.89V10.794A1.046,1.046,0,0,1,62.934,9.75ZM80.958,21.782a.545.545,0,0,0,.544-.544V16.2a.545.545,0,0,0-.544-.544H69.239V10.794a.545.545,0,0,0-.544-.544h-5.76a.545.545,0,0,0-.544.544v4.857H56.912a5.884,5.884,0,0,0-5.877,5.877V41.673l-.014.04a15.61,15.61,0,0,0-.9,5.224V72.762a.545.545,0,0,0,.544.544H80.958a.545.545,0,0,0,.544-.544V46.938A15.618,15.618,0,0,0,69.431,31.671l-.193-.045V21.782ZM63.479,11.339H68.15V32.07a.546.546,0,0,0,.442.535A14.6,14.6,0,0,1,80.206,44.517l.049.291H51.373l.049-.291A14.6,14.6,0,0,1,63.036,32.606a.546.546,0,0,0,.442-.535Zm4.171.5H63.979V32.07a1.047,1.047,0,0,1-.848,1.026A14.144,14.144,0,0,0,51.967,44.309H79.661A14.144,14.144,0,0,0,68.5,33.1a1.047,1.047,0,0,1-.847-1.026Zm-10.737,4.9H62.39v3.953H58.673a2.327,2.327,0,0,0-2.325,2.325v11.41l-.1.075a15.723,15.723,0,0,0-3.665,4.026l-.461.724V21.528A4.793,4.793,0,0,1,56.912,16.74Zm4.978.5H56.912a4.293,4.293,0,0,0-4.288,4.288V37.574a16.152,16.152,0,0,1,3.224-3.391V23.018a2.828,2.828,0,0,1,2.825-2.825H61.89Zm7.349-.5H80.414v3.953H69.239Zm10.675.5H69.739v2.953H79.914ZM58.673,21.782H62.39v9.844l-.193.045a15.562,15.562,0,0,0-4.383,1.784l-.378.224V23.018A1.237,1.237,0,0,1,58.673,21.782Zm3.217.5H58.673a.737.737,0,0,0-.736.736v9.789a16.016,16.016,0,0,1,3.953-1.576ZM51.262,45.9h29.1l.013.236c0,.062.007.123.011.185.012.2.025.408.025.619v25.28h-29.2V46.938c0-.21.012-.418.025-.619,0-.061.007-.123.011-.185Zm28.631.5H51.735c-.011.184-.021.36-.021.54v24.78h28.2V46.938C79.914,46.758,79.9,46.582,79.893,46.4Z" transform="translate(-8.196)" fill="#909090"/>
  </g>
</svg>
